World Gone Crazy is the thirteenth studio album by American rock band The Doobie Brothers, released on September 28, 2010. 

Tom Johnston states about the album "This album has been in the mix for five years, but we didn’t seriously start putting the 

nuts and bolts together until three years ago."


Track Listing

No.  Title                                        Writer(s)	Length

1.   "A Brighter Day"                             Tom Johnston                   3:54
2.   "Chateau"                                    Patrick Simmons, Ted Templeman 4:18
3.   "Nobody"                                     Johnston                       4:35
4.   "World Gone Crazy"                           Johnston                       5:10
5.   "Far from Home"                              Simmons, Templeman             3:45
6.   "Young Man's Game"                           Johnston                       5:32
7.   "Don't Say Goodbye" (feat. Michael McDonald) Simmons, Templeman             4:53
8.   "My Baby"                                    Johnston                       4:03
9.   "Old Juarez"                                 Johnston                       3:47
10.  "I Know We Won" (feat. Willie Nelson)        Willie Nelson, Simmons         4:05
11.  "Law Dogs"                                   Johnston                       3:10

Total Length                                                                    55:21

Rip Log:

CUERipper v2.0.9 Copyright (C) 2008-10 Gregory S. Chudov

EAC extraction logfile from 1. October 2010, 20:27

Doobie Brothers / WORLD GONE CRAZY 

Used drive  : TSSTcorp CDDVDW SH-S203N   Adapter: 1  ID: 0

Read mode               : Secure
Utilize accurate stream : Yes
Defeat audio cache      : Yes
Make use of C2 pointers : No

Read offset correction                      : 6
Overread into Lead-In and Lead-Out          : No
Fill up missing offset samples with silence : Yes
Delete leading and trailing silent blocks   : No
Null samples used in CRC calculations       : Yes
Used interface                              : Native Win32 interface for Win NT & 2000
Gap handling                                : Appended to previous track

Used output format : Internal WAV Routines
Sample format      : 44.100 Hz; 16 Bit; Stereo


TOC of the extracted CD

     Track |   Start  |  Length  | Start sector | End sector 
    ---------------------------------------------------------
        1  |  0:00.00 |  3:54.35 |         0    |    17584   
        2  |  3:54.35 |  4:18.14 |     17585    |    36948   
        3  |  8:12.49 |  4:35.40 |     36949    |    57613   
        4  | 12:48.14 |  5:10.70 |     57614    |    80933   
        5  | 17:59.09 |  3:45.45 |     80934    |    97853   
        6  | 21:44.54 |  5:32.68 |     97854    |   122821   
        7  | 27:17.47 |  4:53.30 |    122822    |   144826   
        8  | 32:11.02 |  4:03.22 |    144827    |   163073   
        9  | 36:14.24 |  3:47.24 |    163074    |   180122   
       10  | 40:01.48 |  4:05.08 |    180123    |   198505   
       11  | 44:06.56 |  3:10.46 |    198506    |   212801

Check out the NFO for the full rip log.